<?xml version="1.0" encoding="utf-8"?>
<!-- Generator: Adobe Illustrator 25.0.0, SVG Export Plug-In . SVG Version: 6.00 Build 0)  -->
<svg version="1.1" id="Слой_1" xmlns="http://www.w3.org/2000/svg" xmlns:xlink="http://www.w3.org/1999/xlink" x="0px" y="0px"
	 viewBox="0 0 32 32" style="enable-background:new 0 0 32 32;" xml:space="preserve">
<style type="text/css">
	.st0{fill:#FFFFFF;}
</style>
<g id="Double_Chevron_Right">
	<path class="st0" d="M8.3,16.7l6.9,7c0.4,0.4,1,0.4,1.4,0c0.4-0.4,0.4-1,0-1.4L10.5,16l6.2-6.3c0.4-0.4,0.4-1,0-1.4
		c-0.4-0.4-1-0.4-1.4,0l-6.9,7C8,15.7,8,16.3,8.3,16.7z"/>
	<path class="st0" d="M15.3,16.7l6.9,7c0.4,0.4,1,0.4,1.4,0c0.4-0.4,0.4-1,0-1.4L17.5,16l6.2-6.3c0.4-0.4,0.4-1,0-1.4
		c-0.4-0.4-1-0.4-1.4,0l-6.9,7C15,15.7,15,16.3,15.3,16.7z"/>
</g>
</svg>
