<svg version="1.1" id="Слой_1" xmlns="http://www.w3.org/2000/svg" x="0" y="0" viewBox="0 0 32 32" style="enable-background:new 0 0 32 32" xml:space="preserve"><style>.st0{fill:#fff}</style><g id="Double_Chevron_Right"><path class="st0" d="m8.3 16.7 6.9 7c.4.4 1 .4 1.4 0 .4-.4.4-1 0-1.4L10.5 16l6.2-6.3c.4-.4.4-1 0-1.4-.4-.4-1-.4-1.4 0l-6.9 7c-.4.4-.4 1-.1 1.4z"/><path class="st0" d="m15.3 16.7 6.9 7c.4.4 1 .4 1.4 0 .4-.4.4-1 0-1.4L17.5 16l6.2-6.3c.4-.4.4-1 0-1.4-.4-.4-1-.4-1.4 0l-6.9 7c-.4.4-.4 1-.1 1.4z"/></g></svg>