<svg viewBox="0 0 32 32" xml:space="preserve" xmlns="http://www.w3.org/2000/svg"><g fill="#fff"><path d="m23.662 15.286-6.9-6.999a.994.994 0 0 0-1.414 0 1.016 1.016 0 0 0 0 1.428L21.544 16l-6.196 6.285a1.016 1.016 0 0 0 0 1.428.994.994 0 0 0 1.414 0l6.899-6.999a1.043 1.043 0 0 0 .001-1.428z"/><path d="M16.662 15.286 9.763 8.287a.994.994 0 0 0-1.414 0 1.016 1.016 0 0 0 0 1.428L14.544 16l-6.196 6.285a1.016 1.016 0 0 0 0 1.428.994.994 0 0 0 1.414 0l6.899-6.999a1.043 1.043 0 0 0 .001-1.428z"/></g></svg>