<svg xmlns="http://www.w3.org/2000/svg" viewBox="0 0 41 122.9" style="enable-background:new 0 0 41 122.9" xml:space="preserve"><path d="M6.1 7.5C4 7.5 2.3 5.8 2.3 3.7 2.3 1.7 4 0 6.1 0H35c2.1 0 3.8 1.7 3.8 3.8S37 7.5 35 7.5H6.1zm0 115.4c-2.1 0-3.8-1.7-3.8-3.8s1.7-3.8 3.8-3.8H35c2.1 0 3.8 1.7 3.8 3.8s-1.7 3.8-3.8 3.8H6.1zM22 109.6c-.4.2-.9.3-1.3.3h-.5c-.4 0-.9-.1-1.3-.3h-.2c-.2-.1-.5-.3-.7-.4L1.4 95.6c-1.6-1.3-1.9-3.7-.6-5.2 1.3-1.6 3.7-1.9 5.2-.6l10.7 8.7v-71L6.1 36c-1.6 1.3-4 1-5.2-.6s-1-4 .6-5.2l16.7-13.5c.2-.2.4-.3.7-.5h.2c.4-.2.9-.3 1.3-.3h.5c.4 0 .9.1 1.3.3h.2c.2.1.5.3.7.5l16.7 13.5c1.6 1.3 1.9 3.7.6 5.2-1.3 1.6-3.7 1.9-5.2.6l-10.7-8.6v71L35 89.7c1.6-1.3 4-1 5.2.6s1 4-.6 5.2L22.9 109c-.2.2-.4.3-.7.4h-.1l-.1.2z" style="fill:#fff"/></svg>