<?xml version="1.0" encoding="utf-8"?>
<!-- Generator: Adobe Illustrator 25.0.0, SVG Export Plug-In . SVG Version: 6.00 Build 0)  -->
<svg version="1.1" id="Layer_1" xmlns="http://www.w3.org/2000/svg" xmlns:xlink="http://www.w3.org/1999/xlink" x="0px" y="0px"
	 viewBox="0 0 41 122.9" style="enable-background:new 0 0 41 122.9;" xml:space="preserve">
<style type="text/css">
	.st0{fill:#FFFFFF;}
</style>
<g>
	<path class="st0" d="M6.1,7.5C4,7.5,2.3,5.8,2.3,3.7C2.3,1.7,4,0,6.1,0H35c2.1,0,3.8,1.7,3.8,3.8S37,7.5,35,7.5L6.1,7.5L6.1,7.5z
		 M6.1,122.9c-2.1,0-3.8-1.7-3.8-3.8s1.7-3.8,3.8-3.8H35c2.1,0,3.8,1.7,3.8,3.8s-1.7,3.8-3.8,3.8H6.1L6.1,122.9z M22,109.6
		c-0.4,0.2-0.9,0.3-1.3,0.3l0,0h-0.1l0,0h-0.1l0,0h-0.1l0,0h-0.1l0,0h-0.1l0,0c-0.4,0-0.9-0.1-1.3-0.3h0l0,0l-0.1,0l0,0l-0.1,0l0,0
		l0,0c-0.2-0.1-0.5-0.3-0.7-0.4L1.4,95.6c-1.6-1.3-1.9-3.7-0.6-5.2c1.3-1.6,3.7-1.9,5.2-0.6l10.7,8.7l0-71L6.1,36
		c-1.6,1.3-4,1-5.2-0.6s-1-4,0.6-5.2l16.7-13.5c0.2-0.2,0.4-0.3,0.7-0.5l0,0l0,0l0.1,0l0,0l0.1,0l0,0h0c0.4-0.2,0.9-0.3,1.3-0.3l0,0
		h0.1l0,0h0.1l0,0h0.1l0,0h0.1l0,0h0.1l0,0c0.4,0,0.9,0.1,1.3,0.3h0l0,0l0.1,0l0,0l0.1,0l0,0l0,0c0.2,0.1,0.5,0.3,0.7,0.5l16.7,13.5
		c1.6,1.3,1.9,3.7,0.6,5.2c-1.3,1.6-3.7,1.9-5.2,0.6l-10.7-8.6l0,71L35,89.7c1.6-1.3,4-1,5.2,0.6s1,4-0.6,5.2l-16.7,13.5
		c-0.2,0.2-0.4,0.3-0.7,0.4l0,0l0,0l-0.1,0L22,109.6L22,109.6L22,109.6L22,109.6L22,109.6z"/>
</g>
</svg>
