<?xml version="1.0" encoding="utf-8"?>
<!-- Generator: Adobe Illustrator 25.0.0, SVG Export Plug-In . SVG Version: 6.00 Build 0)  -->
<svg version="1.1" id="Слой_1" xmlns="http://www.w3.org/2000/svg" xmlns:xlink="http://www.w3.org/1999/xlink" x="0px" y="0px"
	 viewBox="0 0 512 512" style="enable-background:new 0 0 512 512;" xml:space="preserve">
<style type="text/css">
	.st0{fill-rule:evenodd;clip-rule:evenodd;fill:#FFFFFF;}
</style>
<path class="st0" d="M35.1,506c-8,8-21.2,8-29.2,0s-8-21.2,0-29.2L226.6,256L5.9,35.2c-8-8-8-21.2,0-29.2s21.2-8,29.2,0l220.8,220.8
	L476.6,6c8-8,21.2-8,29.2,0s8,21.2,0,29.2L285.2,256L506,476.8c8,8,8,21.2,0,29.2s-21.2,8-29.2,0L255.9,285.4L35.1,506z"/>
</svg>
