<svg width="59" height="52" viewBox="0 0 59 52" fill="none" xmlns="http://www.w3.org/2000/svg">
<path fill-rule="evenodd" clip-rule="evenodd" d="M17.0636 40.6492C16.8369 40.8759 16.5295 41.0033 16.2089 41.0033C15.8882 41.0033 15.5808 40.8759 15.3541 40.6492C15.1274 40.4224 15 40.1148 15 39.7942C15 39.4735 15.1274 39.1659 15.3541 38.9392L28.2883 26.0017L15.3541 13.0642C15.1274 12.8374 15 12.5298 15 12.2092C15 11.8885 15.1274 11.5809 15.3541 11.3542C15.5808 11.1274 15.8882 11 16.2089 11C16.5295 11 16.8369 11.1274 17.0636 11.3542L29.9979 24.2917L42.9322 11.3542C43.1589 11.1274 43.4664 11 43.787 11C44.1076 11 44.415 11.1274 44.6417 11.3542C44.8684 11.5809 44.9958 11.8885 44.9958 12.2092C44.9958 12.5298 44.8684 12.8374 44.6417 13.0642L31.715 26.0017L44.6492 38.9392C44.7615 39.0514 44.8505 39.1847 44.9113 39.3314C44.972 39.4781 45.0033 39.6354 45.0033 39.7942C45.0033 39.9529 44.972 40.1102 44.9113 40.2569C44.8505 40.4036 44.7615 40.5369 44.6492 40.6492C44.537 40.7614 44.4037 40.8505 44.2571 40.9113C44.1104 40.972 43.9532 41.0033 43.7945 41.0033C43.6357 41.0033 43.4785 40.972 43.3318 40.9113C43.1852 40.8505 43.0519 40.7614 42.9397 40.6492L29.9979 27.7192L17.0636 40.6492Z" fill="white"/>
<rect x="1.5" y="1.5" width="56" height="48.3043" stroke="white" stroke-width="3"/>
</svg>
