<svg width="30" height="40" fill="none" xmlns="http://www.w3.org/2000/svg"><g clip-path="url(#a)"><path fill-rule="evenodd" clip-rule="evenodd" d="m.9 21.38 24.582 18.06c.195.172.47.314.799.412.328.099.699.15 1.076.15a3.79 3.79 0 0 0 1.075-.15c.329-.098.604-.24.8-.412.505-.41.775-.89.775-1.38 0-.49-.27-.97-.775-1.38L6.525 20 29.232 3.32c.505-.41.775-.89.775-1.38 0-.49-.27-.97-.775-1.38-.196-.172-.471-.314-.8-.412a3.788 3.788 0 0 0-1.075-.15c-.377 0-.748.051-1.076.15-.328.098-.604.24-.8.412L.902 18.62c-.585.392-.903.879-.903 1.38 0 .501.318.987.902 1.38Z" fill="#fff"/></g><defs><clipPath id="a"><path fill="#fff" d="M0 0h30v40H0z"/></clipPath></defs></svg>