<svg xmlns="http://www.w3.org/2000/svg" viewBox="0 0 297 297" style="enable-background:new 0 0 297 297" xml:space="preserve"><path d="M226 119.1c11.2-12.6 18-29.1 18-47.3v-.7C244 31.9 212.4 0 173.2 0h-49.7C84.3 0 52 31.9 52 71.2v.7c0 18.4 7 35.1 18.5 47.8C59.1 130.2 52 145.3 52 162v77c0 32 26.4 58 58.3 58h77c32 0 57.7-26 57.7-58v-77c0-17-7.3-32.3-19-42.9zm-30 102c-2 2.3-4.8 4.3-8.4 6s-8.3 2.6-13.8 2.6c-7 0-12.8-2.2-17.1-6.5-4.4-4.3-6.6-9.9-6.6-16.8v-11.8c0-6.8 2.2-12.4 6.5-16.7 4.3-4.3 9.8-6.5 16.5-6.5 7.3 0 12.8 1.7 16.4 5.1 3.6 3.4 5.7 8.2 6.2 14l-.1.5h-12.3c-.4-3-1.4-5.4-2.9-7-1.5-1.5-3.8-2.4-6.8-2.4-3.1 0-5.6 1.2-7.5 3.6-1.9 2.4-2.9 5.5-2.9 9.3v11.9c0 3.9 1 7.1 2.9 9.5 1.8 2.4 4.5 3.6 7.8 3.6 2.4 0 4-.2 5.4-.6 1.4-.4 3-.9 3-1.6V209h-9v-9h23l-.3 21.1zM100 172h14v22h4.5l12.4-22h16.3l-17.5 25.8 19.1 31.2h-16l-12.7-23H114v23h-14v-57zM68 71.8v-.7C68 40.7 93.1 16 123.5 16h49.7c30.4 0 54.8 24.7 54.8 55.2v.7c0 14.8-5.7 28.2-15.2 38.2-7.7-3.8-16.3-6-25.5-6h-77c-9.5 0-18.6 2.3-26.5 6.3-9.6-10-15.8-23.6-15.8-38.6z" style="fill:#fff"/></svg>